<?xml version="1.0" standalone="no"?>
<!DOCTYPE svg PUBLIC "-//W3C//DTD SVG 20010904//EN"
 "http://www.w3.org/TR/2001/REC-SVG-20010904/DTD/svg10.dtd">
<svg version="1.0" xmlns="http://www.w3.org/2000/svg"
 width="1021.000000pt" height="1077.000000pt" viewBox="0 0 1021.000000 1077.000000"
 preserveAspectRatio="xMidYMid meet">
<metadata>
Created by potrace 1.12, written by Peter Selinger 2001-2015
</metadata>
<g transform="translate(0.000000,1077.000000) scale(0.100000,-0.100000)"
fill="#000000" stroke="none">
<path d="M1125 10764 c-16 -2 -73 -9 -125 -15 -121 -14 -293 -57 -393 -99
-303 -126 -496 -387 -566 -766 -47 -253 -46 273 -16 -7229 4 -831 10 -1463 16
-1540 58 -722 413 -1037 1219 -1080 162 -8 7760 -38 7885 -30 700 42 993 341
1056 1075 8 86 9 607 5 1670 -4 850 -11 2767 -16 4260 -7 1668 -14 2765 -21
2845 -38 482 -198 718 -554 816 -117 32 -237 48 -445 59 -118 6 -1705 16
-4010 25 -3752 15 -3975 16 -4035 9z m5010 -24 c1590 -6 2919 -15 3032 -20
372 -19 582 -77 727 -201 167 -142 242 -336 266 -683 9 -130 28 -4416 33
-7506 2 -1396 3 -1364 -57 -1603 -113 -444 -390 -656 -926 -707 -98 -10 -7125
12 -7790 24 -145 3 -307 11 -376 20 -503 65 -794 278 -924 675 -38 118 -58
229 -69 396 -5 77 -12 891 -16 1810 -3 919 -10 2775 -16 4125 -9 2492 -9 2585
26 2784 83 475 326 744 768 851 54 13 142 29 195 34 53 6 113 13 132 15 19 2
514 2 1100 0 586 -2 2339 -9 3895 -14z"/>
<path d="M1430 10373 c-106 -9 -300 -46 -382 -73 -167 -56 -284 -127 -389
-236 -169 -177 -252 -389 -289 -745 -12 -112 3 -5467 20 -7089 8 -768 10 -843
28 -940 102 -541 417 -801 1042 -860 120 -11 6964 -45 7265 -36 692 21 991
267 1093 896 16 96 17 245 14 1815 -4 3039 -21 6333 -32 6435 -17 149 -55 294
-106 398 -101 208 -299 336 -589 380 -191 29 -430 32 -3770 47 -3359 14 -3812
15 -3905 8z m3720 -138 c1906 -8 3540 -17 3631 -20 553 -19 775 -150 858 -505
44 -185 41 34 62 -5425 7 -1935 7 -2748 -1 -2843 -27 -341 -95 -528 -245 -678
-143 -143 -297 -205 -588 -234 -138 -14 -7211 15 -7391 30 -221 19 -402 67
-544 146 -44 24 -98 68 -157 128 -99 101 -143 177 -190 322 -57 181 -56 162
-65 1309 -18 2143 -31 6726 -20 6840 42 441 185 689 476 826 124 59 234 85
479 113 59 6 272 6 3695 -9z"/>
<path d="M2200 9391 l0 -478 38 -7 c20 -3 47 -6 60 -6 l22 0 0 220 0 219 31
36 c65 73 130 101 195 83 59 -16 64 -42 64 -311 l0 -234 38 -7 c20 -3 47 -6
60 -6 l23 0 -3 283 c-3 276 -3 283 -27 320 -66 107 -253 102 -351 -9 l-30 -35
0 206 0 205 -60 0 -60 0 0 -479z"/>
<path d="M8230 9391 l0 -479 56 -7 c31 -4 60 -3 65 2 5 5 10 82 11 172 l3 163
148 -165 c82 -91 159 -168 170 -171 37 -10 137 -7 137 4 0 6 -70 87 -155 182
-85 94 -155 174 -155 177 0 3 48 60 106 126 58 66 114 132 125 148 l20 27 -63
0 -63 0 -135 -153 -135 -152 -3 303 -2 302 -65 0 -65 0 0 -479z"/>
<path d="M1470 9302 l0 -390 55 -7 c30 -3 59 -4 65 0 6 4 10 63 10 149 l0 143
103 5 c217 11 337 101 339 255 1 76 -14 122 -55 161 -61 59 -91 66 -314 70
l-203 4 0 -390z m377 273 c49 -21 66 -55 61 -125 -8 -105 -73 -149 -220 -150
l-88 0 0 151 0 152 107 -7 c59 -4 122 -14 140 -21z"/>
<path d="M5970 9301 l0 -388 38 -7 c58 -9 270 -7 337 4 121 20 190 92 190 200
0 91 -56 156 -165 193 l-43 14 37 13 c76 25 135 103 136 180 0 41 -34 105 -70
131 -48 35 -135 49 -302 49 l-158 0 0 -389z m332 278 c47 -12 68 -42 68 -95 0
-80 -62 -120 -201 -131 l-79 -6 0 127 0 126 88 -6 c48 -3 104 -10 124 -15z
m-7 -333 c83 -35 123 -101 104 -171 -16 -58 -45 -69 -186 -74 l-123 -3 0 137
0 138 83 -5 c45 -3 100 -13 122 -22z"/>
<path d="M3100 9563 c-60 -22 -140 -104 -163 -168 -25 -68 -33 -188 -17 -256
37 -159 129 -238 285 -247 100 -5 174 20 235 79 49 48 74 100 90 189 31 169
-34 325 -162 391 -57 30 -201 36 -268 12z m200 -95 c36 -19 51 -34 74 -81 25
-51 29 -68 29 -150 0 -104 -19 -161 -68 -209 -27 -27 -80 -48 -120 -48 -35 1
-101 37 -123 68 -52 72 -65 237 -26 330 42 102 138 138 234 90z"/>
<path d="M3942 9554 c-28 -14 -65 -41 -82 -60 l-30 -35 0 56 0 55 -60 0 -60 0
0 -329 0 -328 38 -7 c20 -3 47 -6 60 -6 l22 0 0 220 0 219 31 36 c65 73 130
101 195 83 59 -16 64 -42 64 -311 l0 -234 38 -7 c20 -3 47 -6 60 -6 l23 0 -3
283 c-3 276 -3 283 -27 320 -49 79 -168 102 -269 51z"/>
<path d="M4645 9567 c-63 -25 -96 -49 -134 -97 -55 -70 -76 -136 -75 -245 0
-77 4 -99 28 -153 32 -70 85 -124 155 -156 62 -28 256 -30 344 -3 l57 18 0 45
c0 43 -2 46 -22 41 -190 -44 -263 -45 -331 -4 -57 35 -97 102 -97 163 l0 24
221 0 222 0 -5 98 c-4 72 -11 109 -28 144 -27 59 -86 113 -137 127 -50 14
-160 13 -198 -2z m160 -91 c41 -18 75 -78 75 -136 l0 -40 -155 0 c-175 0 -172
-1 -140 77 41 97 129 137 220 99z"/>
<path d="M6860 9563 c-60 -22 -140 -104 -163 -168 -25 -68 -33 -188 -17 -256
37 -159 129 -238 285 -247 100 -5 174 20 235 79 49 48 74 100 90 189 31 169
-34 325 -162 391 -57 30 -201 36 -268 12z m200 -95 c36 -19 51 -34 74 -81 25
-51 29 -68 29 -150 0 -104 -19 -161 -68 -209 -27 -27 -80 -48 -120 -48 -35 1
-101 37 -123 68 -52 72 -65 237 -26 330 42 102 138 138 234 90z"/>
<path d="M7610 9563 c-60 -22 -140 -104 -163 -168 -25 -68 -33 -188 -17 -256
37 -159 129 -238 285 -247 100 -5 174 20 235 79 49 48 74 100 90 189 31 169
-34 325 -162 391 -57 30 -201 36 -268 12z m200 -95 c36 -19 51 -34 74 -81 25
-51 29 -68 29 -150 0 -104 -19 -161 -68 -209 -27 -27 -80 -48 -120 -48 -35 1
-101 37 -123 68 -52 72 -65 237 -26 330 42 102 138 138 234 90z"/>
<path d="M4910 8330 l0 -260 35 0 35 0 0 119 0 119 35 31 c20 17 46 31 58 31
48 0 52 -11 57 -157 l5 -138 33 -3 32 -3 0 143 c0 124 -3 147 -20 175 -33 55
-108 60 -172 13 l-28 -21 0 106 0 105 -35 0 -35 0 0 -260z"/>
<path d="M5787 8494 c-4 -4 -7 -22 -7 -41 0 -33 -1 -33 -45 -33 -41 0 -45 -2
-45 -25 0 -23 4 -25 45 -25 l45 0 1 -102 c0 -128 12 -167 59 -190 34 -18 122
-24 154 -12 9 3 16 17 16 31 0 23 -2 24 -42 18 -44 -7 -97 7 -110 28 -4 7 -8
60 -8 120 l0 107 80 0 c79 0 80 0 80 25 0 25 -1 25 -79 25 l-80 0 -3 38 c-3
31 -7 37 -28 40 -14 2 -29 0 -33 -4z"/>
<path d="M4460 8480 c0 -11 44 -315 55 -377 5 -31 9 -33 44 -33 l39 0 28 118
27 117 30 -117 29 -118 37 0 36 0 28 173 c15 94 30 189 33 210 6 35 5 37 -20
37 -14 0 -26 -3 -26 -7 0 -17 -50 -307 -54 -310 -1 -2 -8 23 -15 54 -7 32 -19
84 -28 116 -15 54 -17 57 -47 57 l-32 0 -29 -122 -30 -123 -13 90 c-36 248
-34 240 -64 243 -16 2 -28 -2 -28 -8z"/>
<path d="M6940 8280 l0 -210 30 0 29 0 3 78 3 77 65 6 c113 10 170 56 170 138
0 93 -45 121 -195 121 l-105 0 0 -210z m204 139 c68 -53 4 -139 -104 -139
l-40 0 0 80 0 80 59 0 c44 0 65 -5 85 -21z"/>
<path d="M6231 8430 c-108 -25 -164 -165 -110 -276 37 -77 131 -110 238 -84
46 11 51 15 51 39 l0 28 -60 -15 c-98 -24 -156 3 -175 81 l-7 27 122 0 123 0
-6 60 c-3 34 -12 72 -21 85 -32 48 -91 69 -155 55z"/>
<path d="M7416 8429 c-69 -11 -76 -15 -76 -45 0 -21 3 -25 18 -19 32 14 119
17 141 6 15 -8 21 -21 21 -45 0 -33 0 -33 -57 -40 -66 -8 -126 -39 -142 -73
-21 -46 -14 -89 19 -117 53 -44 124 -43 173 2 17 15 19 15 29 -1 13 -24 53
-39 84 -31 31 8 31 32 0 43 -33 13 -36 28 -36 153 0 108 0 110 -29 139 -16 16
-38 29 -49 29 -11 0 -26 2 -34 4 -7 2 -35 0 -62 -5z"/>
<path d="M7814 8429 c-18 -5 -46 -25 -63 -44 -74 -85 -63 -244 22 -295 49 -30
99 -26 142 11 l35 31 0 -36 c0 -47 -23 -93 -52 -102 -30 -9 -99 -7 -130 5 -23
9 -27 7 -33 -16 -3 -14 -5 -26 -3 -28 13 -10 78 -25 107 -25 93 0 152 42 170
120 11 48 15 320 5 358 -8 26 -48 31 -62 6 -8 -15 -12 -15 -33 -1 -34 21 -69
26 -105 16z m110 -70 c24 -19 26 -26 26 -94 0 -71 -1 -74 -36 -105 -44 -38
-87 -38 -117 1 -36 49 -19 195 25 212 30 12 77 6 102 -14z"/>
<path d="M8241 8430 c-108 -25 -164 -165 -110 -276 37 -77 131 -110 238 -84
46 11 51 15 51 39 l0 28 -60 -15 c-98 -24 -156 3 -175 81 l-7 27 122 0 123 0
-6 60 c-3 34 -12 72 -21 85 -32 48 -91 69 -155 55z"/>
<path d="M8633 8429 c-61 -11 -80 -24 -92 -62 -22 -66 10 -105 121 -146 78
-29 93 -48 63 -81 -24 -27 -82 -33 -140 -15 -65 19 -65 19 -65 -10 0 -30 28
-44 107 -52 95 -10 183 42 183 107 0 44 -34 76 -113 106 -85 33 -97 41 -97 65
0 31 37 42 117 35 72 -6 73 -6 73 19 0 25 1 25 -95 39 -11 2 -39 0 -62 -5z"/>
<path d="M5310 8405 c0 -24 3 -25 59 -25 44 0 60 -4 65 -16 3 -9 6 -78 6 -155
l0 -139 30 0 30 0 0 180 0 180 -95 0 c-95 0 -95 0 -95 -25z"/>
<path d="M4845 6864 c-576 -27 -1177 -146 -1705 -338 -479 -174 -968 -439
-1365 -741 -66 -51 -139 -98 -160 -105 -186 -60 -411 -236 -529 -412 -67 -101
-96 -163 -132 -283 -26 -83 -28 -103 -28 -255 0 -152 2 -172 28 -254 15 -49
39 -115 54 -145 l27 -56 1000 0 999 0 28 55 c15 30 40 96 55 145 24 81 27 106
27 250 1 136 -2 173 -22 245 -31 116 -96 248 -172 348 -34 46 -61 85 -59 86
19 17 316 154 419 193 431 163 786 252 1230 308 170 22 726 31 930 16 581 -44
1171 -200 1684 -445 77 -36 142 -68 144 -71 2 -2 -24 -41 -58 -87 -75 -98
-141 -232 -172 -343 -18 -66 -22 -108 -22 -235 -1 -177 19 -283 77 -400 l32
-65 999 0 1000 0 27 56 c15 30 40 98 56 150 26 87 28 106 27 254 0 145 -3 169
-28 250 -36 120 -65 182 -133 284 -118 176 -341 351 -528 411 -21 7 -95 55
-163 107 -400 304 -863 556 -1362 740 -422 155 -978 279 -1430 318 -174 15
-623 26 -775 19z"/>
<path d="M4930 5824 c-344 -43 -636 -150 -884 -326 -458 -327 -744 -792 -842
-1373 -18 -106 -26 -472 -12 -550 l8 -41 -66 -49 c-110 -83 -180 -186 -219
-321 l-26 -90 3 -674 c3 -670 3 -676 26 -741 48 -143 166 -282 298 -351 152
-79 -16 -73 1879 -73 1895 0 1727 -6 1879 73 135 70 253 212 299 356 22 71 22
75 22 761 l0 690 -28 78 c-43 122 -126 232 -234 309 -42 30 -43 32 -35 72 12
67 7 413 -7 516 -19 142 -83 380 -136 510 -266 647 -798 1086 -1465 1206 -82
15 -388 27 -460 18z m415 -629 c121 -30 199 -62 297 -122 201 -121 357 -323
420 -540 30 -104 32 -351 4 -453 -145 -524 -742 -828 -1287 -655 -349 111
-603 382 -664 710 -22 116 -16 297 15 403 100 354 441 632 835 682 105 13 273
2 380 -25z"/>
</g>
</svg>
